<?xml version="1.0" standalone="no"?>
<!DOCTYPE svg PUBLIC "-//W3C//DTD SVG 20010904//EN"
 "http://www.w3.org/TR/2001/REC-SVG-20010904/DTD/svg10.dtd">
<svg version="1.0" xmlns="http://www.w3.org/2000/svg"
 width="500.000000pt" height="500.000000pt" viewBox="0 0 500.000000 500.000000"
 preserveAspectRatio="xMidYMid meet">

<g transform="translate(0.000000,500.000000) scale(0.100000,-0.100000)"
fill="#000000" stroke="none">
<path d="M1870 4136 c-234 -102 -391 -207 -566 -381 -257 -254 -431 -592 -490
-951 -25 -148 -24 -430 0 -568 44 -248 135 -475 271 -681 77 -115 95 -136 234
-275 331 -328 750 -500 1222 -500 536 0 1045 250 1372 673 55 71 136 196 93
142 -207 -255 -443 -435 -719 -549 -511 -211 -1119 -149 -1580 162 -370 249
-635 645 -717 1070 -47 244 -47 431 1 680 93 485 422 919 884 1164 104 55 102
61 -5 14z"/>
<path d="M2638 2063 c-20 -51 -23 -75 -23 -194 0 -153 -4 -163 -76 -200 -54
-27 -129 -107 -155 -164 -28 -60 -46 -168 -42 -250 l3 -60 -37 -9 c-71 -18
-138 37 -138 114 0 48 21 75 75 96 52 19 58 47 12 52 -44 5 -111 -40 -136 -91
-26 -53 -26 -80 -2 -133 23 -51 69 -87 141 -109 80 -25 520 -35 520 -12 0 31
-30 47 -88 47 l-57 1 28 20 c57 43 89 157 55 197 -29 34 -32 45 -9 33 31 -17
51 -64 51 -121 0 -46 10 -74 59 -170 11 -20 31 -23 64 -11 34 13 35 39 3 47
-29 7 -34 18 -42 89 -5 43 0 72 27 161 44 144 45 222 5 314 -16 36 -29 83 -30
105 -1 35 3 42 42 68 36 24 42 33 42 63 0 30 -4 35 -30 40 -16 4 -36 17 -45
30 -11 17 -31 26 -75 35 -55 11 -60 14 -60 38 l-1 26 -14 -25 -13 -25 -11 28
c-6 15 -13 27 -15 27 -3 0 -15 -26 -28 -57z"/>
<path d="M4035 1644 c-9 -15 -12 -23 -6 -20 11 7 35 46 28 46 -3 0 -12 -12
-22 -26z"/>
</g>
</svg>
